<?xml version="1.0"?>
<svg xmlns="http://www.w3.org/2000/svg" id="regular" enable-background="new 0 0 24 24" height="512px" viewBox="0 0 24 24" width="512px" class=""><g><path d="m5.514 14.674h-3.028c-.596 0-1.081.485-1.081 1.081v6.921c0 .358.291.649.649.649h3.893c.358 0 .649-.291.649-.649v-6.921c-.001-.596-.485-1.081-1.082-1.081z" fill="#90caf9" data-original="#90CAF9" class="active-path" style="fill:#FF71A6" data-old_color="#90caf9"/><path d="m13.531 10.875h-3.063c-.603 0-1.094.49-1.094 1.094v10.5c0 .362.294.656.656.656h3.938c.362 0 .656-.294.656-.656v-10.5c.001-.604-.489-1.094-1.093-1.094z" fill="#64b5f6" data-original="#64B5F6" class="" style="fill:#FA317C" data-old_color="#64b5f6"/><path d="m21.617 6.685h-3.234c-.637 0-1.155.518-1.155 1.155v14.782c0 .383.31.693.693.693h4.157c.383 0 .693-.31.693-.693v-14.782c.001-.637-.517-1.155-1.154-1.155z" fill="#2196f3" data-original="#2196F3" class="" style="fill:#E30B5C" data-old_color="#2196f3"/><path d="m2.75 11c-.192 0-.384-.073-.53-.22-.293-.293-.293-.768 0-1.061l8.5-8.5c.293-.293.768-.293 1.061 0s.293.768 0 1.061l-8.5 8.5c-.147.147-.339.22-.531.22z" data-original="#000000" class="" style="fill:#C7EBFF" data-old_color="#000000"/><path d="m11.25 6c-.414 0-.75-.336-.75-.75v-2.75h-2.75c-.414 0-.75-.336-.75-.75s.336-.75.75-.75h3.5c.414 0 .75.336.75.75v3.5c0 .414-.336.75-.75.75z" data-original="#000000" class="" style="fill:#C7EBFF" data-old_color="#000000"/><path d="m23.25 24h-22.5c-.414 0-.75-.336-.75-.75s.336-.75.75-.75h22.5c.414 0 .75.336.75.75s-.336.75-.75.75z" data-original="#000000" class="" style="fill:#C7EBFF" data-old_color="#000000"/><path d="m6.25 24h-4.5c-.414 0-.75-.336-.75-.75v-8c0-.689.561-1.25 1.25-1.25h3.5c.689 0 1.25.561 1.25 1.25v8c0 .414-.336.75-.75.75zm-3.75-1.5h3v-7h-3z" data-original="#000000" class="" style="fill:#C7EBFF" data-old_color="#000000"/><path d="m14.25 24h-4.5c-.414 0-.75-.336-.75-.75v-12c0-.689.561-1.25 1.25-1.25h3.5c.689 0 1.25.561 1.25 1.25v12c0 .414-.336.75-.75.75zm-3.75-1.5h3v-11h-3z" data-original="#000000" class="" style="fill:#C7EBFF" data-old_color="#000000"/><path d="m22.25 24h-4.5c-.414 0-.75-.336-.75-.75v-16c0-.689.561-1.25 1.25-1.25h3.5c.689 0 1.25.561 1.25 1.25v16c0 .414-.336.75-.75.75zm-3.75-1.5h3v-15h-3z" data-original="#000000" class="" style="fill:#C7EBFF" data-old_color="#000000"/></g> </svg>
